# xmcd
# 
# Track frame offsets:
#     150
#     14787
#     27917
#     41570
#     50342
#     77305
#     86367
#     99317
#     113412
#     127955
#     143310
#     152447
#     168672
#     180972
# 
# Disc length: 2609
# 
# Revision: 3
# Processed by: cddbd v1.5.2PL0 Copyright (c) Steve Scherf et al.
# Submitted via: fre:ac v1.1beta1pre4
# 
DISCID=930a2f0e
DTITLE=Adi Hirschal&Wolfgang Böck - Strizzilieder
DYEAR=1993
DGENRE=Folk
TTITLE0=D´ ordentlichen Leut´
TTITLE1=Weana Heurigeng´stanzln
TTITLE2=G´rad oder ung´rad
TTITLE3=Grüaß di´ Gott
TTITLE4=D´ Glasscherbentanz
TTITLE5=´s Favoritner Frauenkäferl
TTITLE6=Die letzten 2 Pülcher
TTITLE7=Drunt´ in Erdberg
TTITLE8=´s Spinnradl drahn
TTITLE9=Als a Niachta
TTITLE10=Bruada, woa i daneb´n
TTITLE11=´s größte Glück
TTITLE12=Granatentanz
TTITLE13=Ein echt´s Wienerlied
EXTD=
EXTT0=
EXTT1=
EXTT2=
EXTT3=
EXTT4=
EXTT5=
EXTT6=
EXTT7=
EXTT8=
EXTT9=
EXTT10=
EXTT11=
EXTT12=
EXTT13=
PLAYORDER=
